<?xml version="1.0" encoding="UTF-8" standalone="no"?>
<!-- Created with Inkscape (http://www.inkscape.org/) -->

<svg
   width="429.073mm"
   height="35.937469mm"
   viewBox="0 0 429.073 35.93747"
   version="1.1"
   id="svg1"
   xmlns="http://www.w3.org/2000/svg"
   xmlns:svg="http://www.w3.org/2000/svg">
  <defs
     id="defs1" />
  <path
     id="path14"
     d="M -4.6161481e-6,0.00175918 V 35.937465 H 40.426562 L 44.919187,31.44484 V 4.4926201 L 40.426562,0.00175918 Z M 60.640728,8.9852449 H 81.962615 V 17.96873 H 60.640728 Z M 49.411812,0.00175918 V 35.937465 h 11.228916 v -8.985249 h 21.321887 v 8.985249 H 93.189768 V 25.638118 l -3.175,-3.176763 3.175,-3.176764 V 4.4926201 L 88.700671,0.00175918 Z M 11.228911,8.9852449 H 33.688507 V 26.953979 H 11.228911 Z M 97.571267,0.00175918 V 35.937465 h 40.684103 v -8.985249 h -28.91013 v -4.490861 h 26.65059 V 13.477869 H 109.34524 V 8.9852449 h 27.77948 V 0.00175918 Z M 152.85861,8.9852449 h 21.32012 V 17.96873 H 152.85861 Z M 141.62969,0.00175918 V 35.937465 h 11.22892 v -8.985249 h 21.32012 v 8.985249 h 11.23068 V 0.00175918 Z m 131.37444,0 V 13.476105 H 250.54101 V 0.00175918 H 239.31209 V 35.937465 h 11.22892 v -13.47611 h 22.46312 v 13.47611 h 11.22715 V 0.00175918 Z m 26.94869,8.98348572 h 21.32189 V 17.96873 H 299.95282 Z M 288.72391,0.00175918 V 35.937465 h 11.22891 v -8.985249 h 21.32189 v 8.985249 h 11.22892 V 0.00175918 Z m 48.27234,0 V 35.937465 h 43.33346 v -13.47611 h -11.22892 v 4.490861 H 348.22517 V 8.9852449 h 20.87562 v 4.4908601 h 11.22892 V 0.00175918 Z m -113.37219,-0.0017638912 -0.002,0.0017638912 h -0.03 v 0.03175 L 212.37751,11.24655 201.13095,0.00175918 v -0.0017638912 l -0.002,0.0017638912 H 189.90204 V 35.937465 h 11.22891 v -21.03261 l 11.24656,11.246555 11.2148,-11.214805 v 21.00086 h 11.22892 V 0.00175918 H 223.62406 Z M 414.3904,0.00175918 400.91429,13.476105 h -5.53332 V 0.00175918 H 384.15205 V 35.937465 h 11.22892 v -13.47611 h 5.53332 l 13.47611,13.474346 h 14.68261 L 411.10604,17.96873 429.07301,0.00175918 Z"
     style="fill:#000000;fill-opacity:1;fill-rule:nonzero;stroke:none;stroke-width:1.76389" />
</svg>
