<?xml version="1.0" encoding="iso-8859-1"?>
<!-- Generator: Adobe Illustrator 26.0.1, SVG Export Plug-In . SVG Version: 6.00 Build 0)  -->
<svg version="1.1" id="Layer_1" xmlns="http://www.w3.org/2000/svg" xmlns:xlink="http://www.w3.org/1999/xlink" x="0px" y="0px"
     viewBox="250 245 500 510" xml:space="preserve">

    <g>
</g>
    <g>
	<linearGradient id="SVGID_1_" gradientUnits="userSpaceOnUse" x1="260.0588" y1="501.1574" x2="762.6788" y2="501.1574">
		<stop offset="0" style="stop-color:#EE5799"/>
        <stop offset="0.0971" style="stop-color:#EE508B"/>
        <stop offset="0.28" style="stop-color:#ED3D67"/>
        <stop offset="0.5056" style="stop-color:#EC2132"/>
        <stop offset="0.8317" style="stop-color:#F67B20"/>
        <stop offset="1" style="stop-color:#FAA418"/>
	</linearGradient>
        <path style="fill:url(#SVGID_1_);" d="M251.157,502.315c0-0.772,0-1.543,0-2.315c21.203-21.335,42.362-42.715,63.618-63.997
		c59.276-59.349,118.596-118.655,177.879-177.998c2.171-2.174,4.13-4.56,6.188-6.847c1.543,0,3.086,0,4.63,0
		c5.508,6.995,12.215,12.839,18.468,19.111C598.317,346.874,674.744,423.431,751.157,500c0,0.772,0,1.543,0,2.315
		c-2.141,1.93-4.376,3.766-6.411,5.802c-78.997,79.022-157.976,158.061-236.946,237.11c-1.902,1.904-3.66,3.951-5.486,5.931
		c-0.772,0-1.543,0-2.315,0c-1.688-1.845-3.309-3.757-5.075-5.525c-79.244-79.319-158.499-158.627-237.77-237.919
		C255.256,505.814,253.161,504.11,251.157,502.315z M520.052,500.237c0,6.553,0.176,13.113-0.06,19.658
		c-0.166,4.627,1.453,6.688,6.3,6.613c11.754-0.183,23.514-0.019,35.271-0.062c2.865-0.01,6.306,0.322,6.186-4.041
		c-0.117-4.276-3.58-3.873-6.412-3.901c-8.865-0.088-17.733-0.155-26.598-0.036c-4.884,0.066-6.222-2.338-6.153-6.844
		c0.066-4.325,1.465-6.428,6.062-6.231c5.194,0.223,10.417,0.243,15.606-0.036c3.247-0.174,8.3,1.853,8.37-4.082
		c0.075-6.381-5.268-4.176-8.661-4.394c-4.799-0.308-9.641-0.262-14.448-0.033c-4.828,0.23-6.979-1.458-6.958-6.608
		c0.02-4.983,1.806-6.907,6.799-6.78c9.053,0.231,18.116,0.041,27.175,0.051c3.021,0.003,5.383-0.635,5.34-4.402
		c-0.044-3.835-2.565-4.218-5.504-4.213c-12.143,0.018-24.288,0.137-36.428-0.045c-4.653-0.07-6.072,1.986-5.938,6.304
		C520.2,487.511,520.053,493.876,520.052,500.237z M371.975,527.523c15.565-0.07,27.991-12.445,28.051-27.935
		c0.058-15.027-13.217-28.2-28.226-28.009c-15.617,0.199-27.802,12.536-27.808,28.156
		C343.986,515.325,356.34,527.593,371.975,527.523z M604.427,500.546c0,6.547-0.014,13.095,0.006,19.642
		c0.01,2.972-0.048,6.058,4.185,6.157c4.612,0.108,4.547-3.185,4.553-6.375c0.018-9.821,0.21-19.647-0.049-29.462
		c-0.14-5.319,1.998-7.262,7.168-6.999c5.378,0.274,10.792,0.285,16.17,0.007c5.198-0.269,7.315,1.761,7.204,7.02
		c-0.211,10.009-0.035,20.026-0.022,30.04c0.004,3.162,0.543,5.876,4.626,5.796c3.788-0.075,4.192-2.648,4.191-5.569
		c-0.007-13.48-0.059-26.961,0.031-40.44c0.026-3.913-1.595-5.567-5.521-5.535c-12.324,0.102-24.649,0.109-36.973,0.018
		c-3.884-0.029-5.653,1.533-5.588,5.48C604.519,487.065,604.438,493.806,604.427,500.546z M482.266,500.394
		c0-6.547-0.181-13.101,0.059-19.64c0.182-4.977-1.872-5.992-5.806-3.683c-13.356,7.839-26.601,8.465-40.034,0.136
		c-3.897-2.416-5.905-1.197-5.842,3.704c0.17,13.092,0.037,26.188,0.086,39.283c0.01,2.668-0.258,5.841,3.657,6.008
		c4.249,0.182,4.266-3.089,4.29-6.036c0.071-8.665,0.107-17.331,0.055-25.996c-0.028-4.667,1.722-6.751,6.241-4.249
		c7.494,4.151,14.68,4.221,22.406,0.217c5.182-2.686,6.18-1.685,6.249,4.432c0.099,8.857,0.066,17.716,0.055,26.574
		c-0.004,3.116,0.906,5.311,4.568,5.181c3.413-0.121,4.009-2.362,4.004-5.136C482.241,514.259,482.249,507.327,482.266,500.394z"/>

        <linearGradient id="SVGID_00000111874868570762383160000013712941787923560630_" gradientUnits="userSpaceOnUse" x1="260.0588" y1="499.5568" x2="762.6788" y2="499.5568">
		<stop offset="0" style="stop-color:#EE5799"/>
            <stop offset="0.0971" style="stop-color:#EE508B"/>
            <stop offset="0.28" style="stop-color:#ED3D67"/>
            <stop offset="0.5056" style="stop-color:#EC2132"/>
            <stop offset="0.8317" style="stop-color:#F67B20"/>
            <stop offset="1" style="stop-color:#FAA418"/>
	</linearGradient>
        <path style="fill:url(#SVGID_00000111874868570762383160000013712941787923560630_);" d="M371.767,518.7
		c-10.541-0.088-18.988-8.661-18.927-19.208c0.06-10.298,9.133-19.291,19.244-19.075c10.303,0.22,19.073,9.147,19.053,19.395
		C391.118,510.071,382.179,518.787,371.767,518.7z"/>
</g>
</svg>
