<svg version="1.1" xmlns="http://www.w3.org/2000/svg" viewBox="0 360 1000 240" xml:space="preserve"><path d="m432.697 365.378.7 110.3c-11.7-11.6-27.6-19-44.6-19-36.5 0-66.3 32.9-66.3 72.9s29.8 72.2 66.3 72.2c17.3 0 32.9-7.2 44.6-19v15.1h44v-232.5zm448.5 0v233.1h44v-233.1zm74.8 0v233.1h44v-233.1zm-956 11.2v221.3h47.3v-183.9l24.3.7c17.4 0 30.2 12.9 30.2 28.9s-14.1 28.9-31.5 28.9h-10.5v53.2l46.6 72.2h55.8l-65-92.6c29.2-7 50.6-32.9 50.6-63.7 0-36.2-29.5-65-66.3-65-1.1 0-2.2-.1-3.3 0zm537.8 1.3v220.6l97.8-.7c37.5-.6 67.6-29 67.6-63.7 0-25.2-8.9-42.6-38.7-56.5 12.1-11.3 19.7-26.7 19.7-43.3 0-15.1-6.3-29.2-16.4-40.1-10.6-11.6-29.3-16.4-54.5-16.4h-75.5zm47.2 38.1h29.5c13 0 23.6 10.7 23.6 23.6s-10.7 23-23.6 23h-15.1v40.1h27.6c15.7 0 28.2 12.5 28.2 28.2-.4 12.2-6.4 21.9-16.4 26.3-3.3 1.5-7.6 2.4-11.8 2.6h-42zm-354.5 38.7c-40.4 0-73.5 33.3-73.5 74.2s33.1 74.2 73.5 74.2c30.8 0 54.6-14.2 67-36.1l-36.1-16.4c-4.6 9.9-15.1 17.1-27.6 17.1-16.6 0-30.2-12.3-30.2-27.6 0-1-.1-1 0-2h97.8c.3-3 0-6 0-9.2.7-47.9-30.5-74.2-70.9-74.2m487.8 7.9v88c0 18.7 12.5 35.6 30.9 45.3 3.7 1.9 7.7 3.2 11.8 4.6 8.3 2.7 17.4 4.6 26.9 4.6 38.1 0 68.9-24.6 68.9-54.5v-88h-43.3l-.7 80.1c0 13.3-11 23.6-25 23.6s-25.6-10.4-25.6-23.6l.7-80.1zm-487.8 23c14.9 0 26.9 12.6 26.9 27.6h-53.8c-.1-15 11.9-27.6 26.9-27.6m170.7 7.2c17.9 0 32.8 15.8 32.8 35.5 0 19.6-14.9 36.1-32.8 36.1-6.7 0-13.2-2.7-18.4-6.6-1.7-1.3-3.1-2.3-4.6-3.9-5.9-6.4-9.2-15.8-9.2-25.6 0-19.7 14.2-35.5 32.2-35.5" fill="#e30f4d"/></svg>
