<?xml version="1.0" encoding="UTF-8"?>
<svg id="Layer_1" xmlns="http://www.w3.org/2000/svg" version="1.1" viewBox="0 0 1373.9 220">
  <!-- Generator: Adobe Illustrator 29.5.0, SVG Export Plug-In . SVG Version: 2.1.0 Build 137)  -->
  <defs>
    <style>
      .st0 {
        fill: #084045;
      }
    </style>
  </defs>
  <path class="st0" d="M518.2,123.3v96.7h-69.7l69.7-96.7ZM0,220h56.1L217.9,2.1h-56.1L0,220ZM69.7,2.1H0v96.7L69.7,2.1ZM148.2,220h69.7v-96.7l-69.7,96.7ZM310.3,220h44.4V2.1h-44.4v217.9ZM437.1,47.7l-63.4,63.4,63.4,63.4V47.7ZM1231.3,220h44.4V2.1h-44.4v217.9ZM518.2,98.8V2.1h-69.7l69.7,96.7ZM666.8,2.1h-56.1l161.7,217.9h56.1L666.8,2.1ZM828.5,98.8V2.1h-69.7l69.7,96.7ZM610.6,123.3v96.7h69.7l-69.7-96.7ZM977.1,2.1h-56.1l161.7,217.9h56.1L977.1,2.1ZM1138.8,98.8V2.1h-69.7l69.7,96.7ZM920.9,123.3v96.7h69.7l-69.7-96.7ZM1359.1,46.6c2.9-1.3,5.5-3,7.7-5.2,2.2-2.2,3.9-4.8,5.2-7.7,1.3-2.9,1.9-6.1,1.9-9.5s-.6-6.5-1.9-9.4c-1.3-2.9-3-5.5-5.2-7.7-2.2-2.2-4.8-3.9-7.7-5.2-2.9-1.3-6.1-1.9-9.4-1.9s-6.5.6-9.5,1.9c-2.9,1.3-5.5,3-7.7,5.2-2.2,2.2-3.9,4.7-5.2,7.7-1.3,2.9-1.9,6.1-1.9,9.4s.6,6.5,1.9,9.5,3,5.5,5.2,7.7c2.2,2.2,4.8,3.9,7.7,5.2,2.9,1.3,6.1,1.9,9.5,1.9s6.5-.6,9.4-1.9ZM1341.5,43.7c-2.5-1.1-4.7-2.6-6.5-4.5-1.8-1.9-3.2-4.1-4.3-6.7-1-2.6-1.5-5.3-1.5-8.3s.5-5.7,1.5-8.3c1-2.6,2.4-4.8,4.3-6.7,1.8-1.9,4-3.4,6.5-4.5,2.5-1.1,5.2-1.6,8.2-1.6s5.7.5,8.2,1.6c2.5,1.1,4.6,2.6,6.4,4.5,1.8,1.9,3.2,4.1,4.2,6.7s1.5,5.3,1.5,8.3-.5,5.8-1.5,8.3c-1,2.6-2.4,4.8-4.2,6.7-1.8,1.9-3.9,3.4-6.4,4.5s-5.2,1.6-8.2,1.6-5.7-.5-8.2-1.6ZM1353.6,25.3c1.2,0,2.3-.2,3.4-.5,1-.3,2-.7,2.7-1.3.8-.6,1.4-1.3,1.8-2.3.4-.9.6-2.1.6-3.4,0-2.2-.7-4-2.1-5.3-1.4-1.3-3.9-1.9-7.5-1.9h-11.8v27.1h3.3v-12.5h6.1l7.7,12.5h4l-8.2-12.5ZM1344,22.7v-9.6h7.7c.8,0,1.6,0,2.4.2.8.1,1.5.3,2.2.6s1.2.8,1.6,1.4c.4.6.6,1.5.6,2.5s-.3,2.4-.9,3.1c-.6.7-1.4,1.2-2.4,1.4-1,.3-2,.4-3.1.4h-8.1Z"/>
</svg>